<svg>
    <symbol id="business" width="48" height="48" viewBox="0 0 48 48" fill="none" xmlns="http://www.w3.org/2000/svg">
<path d="M39 48H9C4.029 48 0 43.971 0 39V9C0 4.029 4.029 0 9 0H39C43.971 0 48 4.029 48 9V39C48 43.971 43.971 48 39 48Z" fill="#FBF6EA"/>
<path d="M25.0305 13.914L14.04 12.2445C13.53 12.165 13.0095 12.3045 12.6195 12.6345C12.2295 12.975 12 13.464 12 13.974V35.0445C12 35.595 12.45 36.045 13.0005 36.045H16.251V30.795C16.251 29.8245 17.031 29.0445 18.0015 29.0445H20.502C21.4725 29.0445 22.2525 29.8245 22.2525 30.795V36.045H26.502V15.645C26.5005 14.784 25.8795 14.055 25.0305 13.914V13.914ZM17.5005 26.7945H16.0005C15.5865 26.7945 15.2505 26.4585 15.2505 26.0445C15.2505 25.6305 15.5865 25.2945 16.0005 25.2945H17.5005C17.9145 25.2945 18.2505 25.6305 18.2505 26.0445C18.2505 26.4585 17.9145 26.7945 17.5005 26.7945ZM17.5005 23.7945H16.0005C15.5865 23.7945 15.2505 23.4585 15.2505 23.0445C15.2505 22.6305 15.5865 22.2945 16.0005 22.2945H17.5005C17.9145 22.2945 18.2505 22.6305 18.2505 23.0445C18.2505 23.4585 17.9145 23.7945 17.5005 23.7945ZM17.5005 20.7945H16.0005C15.5865 20.7945 15.2505 20.4585 15.2505 20.0445C15.2505 19.6305 15.5865 19.2945 16.0005 19.2945H17.5005C17.9145 19.2945 18.2505 19.6305 18.2505 20.0445C18.2505 20.4585 17.9145 20.7945 17.5005 20.7945ZM17.5005 17.7945H16.0005C15.5865 17.7945 15.2505 17.4585 15.2505 17.0445C15.2505 16.6305 15.5865 16.2945 16.0005 16.2945H17.5005C17.9145 16.2945 18.2505 16.6305 18.2505 17.0445C18.2505 17.4585 17.9145 17.7945 17.5005 17.7945ZM22.5 26.7945H21C20.586 26.7945 20.25 26.4585 20.25 26.0445C20.25 25.6305 20.586 25.2945 21 25.2945H22.5C22.914 25.2945 23.25 25.6305 23.25 26.0445C23.25 26.4585 22.914 26.7945 22.5 26.7945ZM22.5 23.7945H21C20.586 23.7945 20.25 23.4585 20.25 23.0445C20.25 22.6305 20.586 22.2945 21 22.2945H22.5C22.914 22.2945 23.25 22.6305 23.25 23.0445C23.25 23.4585 22.914 23.7945 22.5 23.7945ZM22.5 20.7945H21C20.586 20.7945 20.25 20.4585 20.25 20.0445C20.25 19.6305 20.586 19.2945 21 19.2945H22.5C22.914 19.2945 23.25 19.6305 23.25 20.0445C23.25 20.4585 22.914 20.7945 22.5 20.7945ZM22.5 17.7945H21C20.586 17.7945 20.25 17.4585 20.25 17.0445C20.25 16.6305 20.586 16.2945 21 16.2945H22.5C22.914 16.2945 23.25 16.6305 23.25 17.0445C23.25 17.4585 22.914 17.7945 22.5 17.7945Z" fill="#232536"/>
<path d="M34.6205 22.887L27.5 21.396V36.045H34.25C35.2145 36.045 36.0005 35.2605 36.0005 34.2945V24.597C36.0005 23.7705 35.4365 23.067 34.6205 22.887ZM32.2505 33.045H30.7505C30.3365 33.045 30.0005 32.709 30.0005 32.295C30.0005 31.881 30.3365 31.545 30.7505 31.545H32.2505C32.6645 31.545 33.0005 31.881 33.0005 32.295C33.0005 32.709 32.6645 33.045 32.2505 33.045ZM32.2505 30.045H30.7505C30.3365 30.045 30.0005 29.709 30.0005 29.295C30.0005 28.881 30.3365 28.545 30.7505 28.545H32.2505C32.6645 28.545 33.0005 28.881 33.0005 29.295C33.0005 29.709 32.6645 30.045 32.2505 30.045ZM32.2505 27.045H30.7505C30.3365 27.045 30.0005 26.709 30.0005 26.295C30.0005 25.881 30.3365 25.545 30.7505 25.545H32.2505C32.6645 25.545 33.0005 25.881 33.0005 26.295C33.0005 26.709 32.6645 27.045 32.2505 27.045Z" fill="#FFD050"/>
</symbol>

<symbol id="startup" width="48" height="48" viewBox="0 0 48 48" fill="none" xmlns="http://www.w3.org/2000/svg">
<path d="M39 48H9C4.029 48 0 43.971 0 39V9C0 4.029 4.029 0 9 0H39C43.971 0 48 4.029 48 9V39C48 43.971 43.971 48 39 48Z" fill="#FBF6EA"/>
<g clip-path="url(#clip0_1904_115)">
<path d="M17.8505 18.2114L15.8579 18.3654C15.3034 18.4082 14.8096 18.6988 14.503 19.1626L12.2049 22.6383C11.9724 22.99 11.9354 23.4302 12.106 23.8158C12.2766 24.2014 12.6272 24.4702 13.0439 24.5347L14.8683 24.8173C15.2951 22.5523 16.3168 20.293 17.8505 18.2114Z" fill="#FFD050"/>
<path d="M22.1836 32.1316L22.4662 33.9561C22.5307 34.3728 22.7995 34.7234 23.185 34.8939C23.3454 34.9649 23.5152 34.9999 23.6842 34.9999C23.9215 34.9999 24.1572 34.9308 24.3626 34.795L27.8384 32.497C28.3022 32.1903 28.5928 31.6964 28.6355 31.142L28.7895 29.1494C26.7079 30.6832 24.4486 31.7049 22.1836 32.1316Z" fill="#FFD050"/>
<path d="M21.4966 30.8665C21.5599 30.8665 21.6236 30.8613 21.6872 30.8507C22.6361 30.6921 23.5507 30.4248 24.4232 30.0749L16.9244 22.5762C16.5746 23.4486 16.3073 24.3632 16.1486 25.3122C16.0861 25.6862 16.2116 26.0673 16.4797 26.3355L20.6639 30.5196C20.8865 30.7422 21.187 30.8665 21.4966 30.8665Z" fill="#FFD050"/>
<path d="M33.1661 22.1973C35.0011 18.6497 35.069 14.9007 34.9731 13.1425C34.9403 12.54 34.46 12.0597 33.8575 12.0269C33.5712 12.0113 33.2319 12 32.8495 12C30.8835 12 27.7726 12.2978 24.8027 13.834C22.4424 15.0548 19.3475 17.7429 17.5215 21.2757C17.543 21.2925 17.5641 21.3104 17.584 21.3302L25.6698 29.4161C25.6897 29.436 25.7075 29.457 25.7244 29.4786C29.2571 27.6525 31.9453 24.5576 33.1661 22.1973ZM25.3731 16.8623C26.6866 15.5488 28.8241 15.5486 30.1377 16.8623C30.7741 17.4986 31.1245 18.3447 31.1245 19.2446C31.1245 20.1445 30.7741 20.9906 30.1377 21.627C29.481 22.2837 28.618 22.6121 27.7554 22.6122C26.8925 22.6122 26.03 22.2838 25.3731 21.627C24.7367 20.9906 24.3863 20.1445 24.3863 19.2446C24.3863 18.3447 24.7367 17.4986 25.3731 16.8623Z" fill="#232536"/>
<path d="M26.3264 20.674C27.1146 21.4622 28.3971 21.4622 29.1853 20.674C29.5671 20.2922 29.7773 19.7846 29.7773 19.2446C29.7773 18.7047 29.5671 18.197 29.1853 17.8152C28.7912 17.4211 28.2735 17.2241 27.7559 17.2241C27.2382 17.2241 26.7205 17.4211 26.3265 17.8152C25.9447 18.197 25.7344 18.7047 25.7344 19.2446C25.7344 19.7846 25.9447 20.2922 26.3264 20.674Z" fill="#232536"/>
<path d="M12.6875 30.9539C12.86 30.9539 13.0324 30.8881 13.164 30.7565L15.3639 28.5565C15.6271 28.2934 15.6271 27.8668 15.3639 27.6036C15.1008 27.3405 14.6741 27.3405 14.411 27.6036L12.211 29.8036C11.9479 30.0667 11.9479 30.4934 12.211 30.7565C12.3426 30.8881 12.5151 30.9539 12.6875 30.9539Z" fill="#FFD050"/>
<path d="M17.3799 29.6202C17.1168 29.3571 16.6901 29.3571 16.427 29.6202L12.1974 33.8498C11.9342 34.113 11.9342 34.5396 12.1974 34.8028C12.3289 34.9343 12.5014 35.0001 12.6739 35.0001C12.8463 35.0001 13.0188 34.9343 13.1503 34.8027L17.3799 30.5731C17.6431 30.31 17.6431 29.8834 17.3799 29.6202Z" fill="#FFD050"/>
<path d="M18.4422 31.6358L16.2423 33.8358C15.9791 34.099 15.9791 34.5256 16.2423 34.7887C16.3739 34.9203 16.5463 34.9861 16.7187 34.9861C16.8911 34.9861 17.0636 34.9203 17.1952 34.7887L19.3951 32.5888C19.6583 32.3256 19.6583 31.899 19.3951 31.6358C19.132 31.3727 18.7054 31.3727 18.4422 31.6358Z" fill="#FFD050"/>
</g>
<defs>
<clipPath id="clip0_1904_115">
<rect width="23" height="23" fill="white" transform="translate(12 12)"/>
</clipPath>
</defs>
</symbol>

<symbol id="economy" width="48" height="49" viewBox="0 0 48 49" fill="none" xmlns="http://www.w3.org/2000/svg">
<path d="M39 49H9C4.029 49 0 44.971 0 40V10C0 5.029 4.029 1 9 1H39C43.971 1 48 5.029 48 10V40C48 44.971 43.971 49 39 49Z" fill="#FBF6EA"/>
<g clip-path="url(#clip0_1903_118)">
<path d="M18.1156 27.4253H15.5317C14.5999 27.4253 13.8418 28.2179 13.8418 29.192V34.915C13.8418 35.5133 14.3074 36 14.8796 36H18.7676C19.3398 36 19.8054 35.5133 19.8054 34.915V29.1921C19.8054 28.2179 19.0474 27.4253 18.1156 27.4253Z" fill="#232536"/>
<path d="M25.6996 23.9492H23.1157C22.1839 23.9492 21.4258 24.7418 21.4258 25.7159V34.9148C21.4258 35.5131 21.8914 35.9998 22.4636 35.9998H26.3516C26.9239 35.9998 27.3894 35.5131 27.3894 34.9148V25.7159C27.3894 24.7417 26.6314 23.9492 25.6996 23.9492Z" fill="#232536"/>
<path d="M33.4261 19.9888H30.8423C29.9104 19.9888 29.1523 20.7813 29.1523 21.7554V34.9148C29.1523 35.5131 29.6179 35.9998 30.1901 35.9998H34.0781C34.6504 35.9998 35.1159 35.5131 35.1159 34.9148V21.7554C35.116 20.7813 34.3579 19.9888 33.4261 19.9888Z" fill="#232536"/>
<path d="M31.3681 12.6682C31.052 12.2011 30.538 11.9541 29.9929 12.0064L25.1128 12.4785C24.5678 12.5312 24.1059 12.8729 23.8771 13.3926C23.6483 13.9123 23.7004 14.5015 24.0165 14.9686L24.2889 15.371L18.2318 19.7468L18.2256 19.7513C17.7958 20.0693 17.5102 20.5432 17.4213 21.0858C17.3325 21.6284 17.4511 22.1746 17.7552 22.624C18.0593 23.0733 18.5127 23.3719 19.0317 23.4648C19.1441 23.4849 19.2567 23.4949 19.3685 23.4949C19.7713 23.4949 20.1637 23.3657 20.4996 23.1184L26.5664 18.7357L26.8476 19.1511C27.1357 19.5767 27.588 19.8198 28.0783 19.8198C28.1261 19.8198 28.1743 19.8175 28.2228 19.8128C28.7677 19.7601 29.2297 19.4183 29.4585 18.8986L31.5076 14.2441C31.7364 13.7243 31.6843 13.1352 31.3681 12.6682Z" fill="#FFD050"/>
</g>
<defs>
<clipPath id="clip0_1903_118">
<rect width="22.9565" height="24" fill="white" transform="translate(13 12)"/>
</clipPath>
</defs>
</symbol>

Володенька, [17.11.2022 12:53]
<svg width="48" height="49" viewBox="0 0 48 49" fill="none" xmlns="http://www.w3.org/2000/svg">
<path d="M39 49H9C4.029 49 0 44.971 0 40V10C0 5.029 4.029 1 9 1H39C43.971 1 48 5.029 48 10V40C48 44.971 43.971 49 39 49Z" fill="#FBF6EA"/>
<g clip-path="url(#clip0_1903_118)">
<path d="M18.1156 27.4253H15.5317C14.5999 27.4253 13.8418 28.2179 13.8418 29.192V34.915C13.8418 35.5133 14.3074 36 14.8796 36H18.7676C19.3398 36 19.8054 35.5133 19.8054 34.915V29.1921C19.8054 28.2179 19.0474 27.4253 18.1156 27.4253Z" fill="#232536"/>
<path d="M25.6996 23.9492H23.1157C22.1839 23.9492 21.4258 24.7418 21.4258 25.7159V34.9148C21.4258 35.5131 21.8914 35.9998 22.4636 35.9998H26.3516C26.9239 35.9998 27.3894 35.5131 27.3894 34.9148V25.7159C27.3894 24.7417 26.6314 23.9492 25.6996 23.9492Z" fill="#232536"/>
<path d="M33.4261 19.9888H30.8423C29.9104 19.9888 29.1523 20.7813 29.1523 21.7554V34.9148C29.1523 35.5131 29.6179 35.9998 30.1901 35.9998H34.0781C34.6504 35.9998 35.1159 35.5131 35.1159 34.9148V21.7554C35.116 20.7813 34.3579 19.9888 33.4261 19.9888Z" fill="#232536"/>
<path d="M31.3681 12.6682C31.052 12.2011 30.538 11.9541 29.9929 12.0064L25.1128 12.4785C24.5678 12.5312 24.1059 12.8729 23.8771 13.3926C23.6483 13.9123 23.7004 14.5015 24.0165 14.9686L24.2889 15.371L18.2318 19.7468L18.2256 19.7513C17.7958 20.0693 17.5102 20.5432 17.4213 21.0858C17.3325 21.6284 17.4511 22.1746 17.7552 22.624C18.0593 23.0733 18.5127 23.3719 19.0317 23.4648C19.1441 23.4849 19.2567 23.4949 19.3685 23.4949C19.7713 23.4949 20.1637 23.3657 20.4996 23.1184L26.5664 18.7357L26.8476 19.1511C27.1357 19.5767 27.588 19.8198 28.0783 19.8198C28.1261 19.8198 28.1743 19.8175 28.2228 19.8128C28.7677 19.7601 29.2297 19.4183 29.4585 18.8986L31.5076 14.2441C31.7364 13.7243 31.6843 13.1352 31.3681 12.6682Z" fill="#FFD050"/>
</g>
<defs>
<clipPath id="clip0_1903_118">
<rect width="22.9565" height="24" fill="white" transform="translate(13 12)"/>
</clipPath>
</defs>
</svg>


<symbol id="technology" width="48" height="50" viewBox="0 0 48 50" fill="none" xmlns="http://www.w3.org/2000/svg">
<path d="M39 50H9C4.029 50 0 45.971 0 41V11C0 6.029 4.029 2 9 2H39C43.971 2 48 6.029 48 11V41C48 45.971 43.971 50 39 50Z" fill="#FBF6EA"/>
<g clip-path="url(#clip0_1903_119)">
<path d="M27.5176 19.0312C27.5176 19.8065 28.1486 20.4375 28.9238 20.4375H33.1042C33.0283 19.4479 32.7988 18.5021 32.4316 17.625H28.9238C28.1486 17.625 27.5176 18.256 27.5176 19.0312Z" fill="#232536"/>
<path d="M18.377 36H26.8145C27.2031 36 27.5176 35.6855 27.5176 35.2969V31.6875H28.9238V27.1172L21.893 21.8438H15.5645C15.1758 21.8438 14.8613 22.1582 14.8613 22.5469C14.8613 25.0373 15.8824 27.4228 17.6738 29.1428V35.2969C17.6738 35.6855 17.9883 36 18.377 36V36Z" fill="#FFD050"/>
<path d="M24.002 12C23.6133 12 23.2988 12.3145 23.2988 12.7031V13.4062H20.3568C20.0656 12.5896 19.2924 12 18.377 12C17.2138 12 16.2676 12.9462 16.2676 14.1094C16.2676 15.2725 17.2138 16.2188 18.377 16.2188C19.2924 16.2188 20.0656 15.6292 20.3568 14.8125H23.2988V17.625H16.1381C15.8468 16.8083 15.0737 16.2188 14.1582 16.2188C12.995 16.2188 12.002 17.165 12.002 18.3281C12.002 19.4913 12.995 20.4375 14.1582 20.4375C15.0737 20.4375 15.8468 19.8479 16.1381 19.0312H23.2988V21.141L30.0485 26.2033C30.2257 26.3358 30.3301 26.5445 30.3301 26.7656V31.6875H31.0332C32.1964 31.6875 33.1426 30.7413 33.1426 29.5781V26.0625H35.2988C35.5584 26.0625 35.7966 25.9197 35.9189 25.691C36.0411 25.4624 36.0274 25.185 35.8839 24.9693L33.7533 21.8438H28.9238C27.3727 21.8438 26.1113 20.5824 26.1113 19.0312C26.1113 17.4801 27.3727 16.2188 28.9238 16.2188H31.6897C30.0628 13.6865 27.2291 12 24.002 12V12Z" fill="#232536"/>
</g>
<defs>
<clipPath id="clip0_1903_119">
<rect width="24" height="24" fill="white" transform="translate(12 12)"/>
</clipPath>
</defs>
</symbol>


<symbol id="facebook" width="16" height="16" viewBox="0 0 16 16" fill="none" xmlns="http://www.w3.org/2000/svg">
<g clip-path="url(#clip0_1905_3)">
<path d="M16 8C16 3.58172 12.4183 0 8 0C3.58172 0 0 3.58172 0 8C0 11.993 2.92547 15.3027 6.75 15.9028V10.3125H4.71875V8H6.75V6.2375C6.75 4.2325 7.94438 3.125 9.77172 3.125C10.6467 3.125 11.5625 3.28125 11.5625 3.28125V5.25H10.5538C9.56 5.25 9.25 5.86672 9.25 6.5V8H11.4688L11.1141 10.3125H9.25V15.9028C13.0745 15.3027 16 11.993 16 8Z" fill="#232536"/>
</g>
<defs>
<clipPath id="clip0_1905_3">
<rect width="16" height="16" fill="white"/>
</clipPath>
</defs>
</symbol>
  
<symbol id="twitter" width="16" height="17" viewBox="0 0 16 17" fill="none" xmlns="http://www.w3.org/2000/svg">
<path d="M5.03344 15.4068C11.0697 15.4068 14.3722 10.0919 14.3722 5.48434C14.3722 5.33492 14.3691 5.18219 14.3628 5.03277C15.0053 4.53914 15.5597 3.9277 16 3.22719C15.4017 3.51003 14.7664 3.69475 14.1159 3.77504C14.8009 3.33883 15.3137 2.65356 15.5594 1.84627C14.915 2.252 14.2104 2.5382 13.4756 2.69262C12.9806 2.13371 12.326 1.76364 11.6131 1.63964C10.9003 1.51563 10.1688 1.6446 9.53183 2.00659C8.89486 2.36858 8.38787 2.94344 8.08923 3.64228C7.7906 4.34113 7.71695 5.12504 7.87969 5.87281C6.575 5.80325 5.29862 5.44314 4.13332 4.81584C2.96802 4.18853 1.9398 3.30804 1.11531 2.23143C0.696266 2.99907 0.568038 3.90743 0.756687 4.77192C0.945337 5.6364 1.43671 6.39213 2.13094 6.88551C1.60975 6.86793 1.09998 6.71883 0.64375 6.45055V6.49371C0.643283 7.29929 0.905399 8.08018 1.38554 8.70365C1.86568 9.32711 2.53422 9.75467 3.2775 9.91363C2.7947 10.054 2.28799 10.0744 1.79656 9.9734C2.0063 10.6662 2.41438 11.2721 2.96385 11.7067C3.51331 12.1412 4.17675 12.3826 4.86156 12.3972C3.69895 13.3676 2.26278 13.8939 0.784375 13.8914C0.522191 13.8909 0.260266 13.8739 0 13.8402C1.5019 14.864 3.24902 15.4077 5.03344 15.4068Z" fill="#232536"/>
</symbol>

<symbol id="insta" width="16" height="16" viewBox="0 0 16 16" fill="none" xmlns="http://www.w3.org/2000/svg">
<path d="M8 1.44062C10.1375 1.44062 10.3906 1.45 11.2313 1.4875C12.0125 1.52187 12.4344 1.65313 12.7156 1.7625C13.0875 1.90625 13.3563 2.08125 13.6344 2.35937C13.9156 2.64062 14.0875 2.90625 14.2313 3.27813C14.3406 3.55937 14.4719 3.98437 14.5063 4.7625C14.5438 5.60625 14.5531 5.85938 14.5531 7.99375C14.5531 10.1312 14.5438 10.3844 14.5063 11.225C14.4719 12.0063 14.3406 12.4281 14.2313 12.7094C14.0875 13.0813 13.9125 13.35 13.6344 13.6281C13.3531 13.9094 13.0875 14.0813 12.7156 14.225C12.4344 14.3344 12.0094 14.4656 11.2313 14.5C10.3875 14.5375 10.1344 14.5469 8 14.5469C5.8625 14.5469 5.60938 14.5375 4.76875 14.5C3.9875 14.4656 3.56563 14.3344 3.28438 14.225C2.9125 14.0813 2.64375 13.9062 2.36563 13.6281C2.08438 13.3469 1.9125 13.0813 1.76875 12.7094C1.65938 12.4281 1.52813 12.0031 1.49375 11.225C1.45625 10.3813 1.44688 10.1281 1.44688 7.99375C1.44688 5.85625 1.45625 5.60312 1.49375 4.7625C1.52813 3.98125 1.65938 3.55937 1.76875 3.27813C1.9125 2.90625 2.0875 2.6375 2.36563 2.35937C2.64688 2.07812 2.9125 1.90625 3.28438 1.7625C3.56563 1.65313 3.99063 1.52187 4.76875 1.4875C5.60938 1.45 5.8625 1.44062 8 1.44062ZM8 0C5.82813 0 5.55625 0.009375 4.70313 0.046875C3.85313 0.084375 3.26875 0.221875 2.7625 0.41875C2.23438 0.625 1.7875 0.896875 1.34375 1.34375C0.896875 1.7875 0.625 2.23438 0.41875 2.75938C0.221875 3.26875 0.084375 3.85 0.046875 4.7C0.009375 5.55625 0 5.82812 0 8C0 10.1719 0.009375 10.4437 0.046875 11.2969C0.084375 12.1469 0.221875 12.7312 0.41875 13.2375C0.625 13.7656 0.896875 14.2125 1.34375 14.6562C1.7875 15.1 2.23438 15.375 2.75938 15.5781C3.26875 15.775 3.85 15.9125 4.7 15.95C5.55313 15.9875 5.825 15.9969 7.99688 15.9969C10.1688 15.9969 10.4406 15.9875 11.2938 15.95C12.1438 15.9125 12.7281 15.775 13.2344 15.5781C13.7594 15.375 14.2063 15.1 14.65 14.6562C15.0938 14.2125 15.3688 13.7656 15.5719 13.2406C15.7688 12.7312 15.9063 12.15 15.9438 11.3C15.9813 10.4469 15.9906 10.175 15.9906 8.00313C15.9906 5.83125 15.9813 5.55937 15.9438 4.70625C15.9063 3.85625 15.7688 3.27187 15.5719 2.76562C15.375 2.23437 15.1031 1.7875 14.6563 1.34375C14.2125 0.9 13.7656 0.625 13.2406 0.421875C12.7313 0.225 12.15 0.0875 11.3 0.05C10.4438 0.009375 10.1719 0 8 0Z" fill="#232536"/>
<path d="M8 3.89062C5.73125 3.89062 3.89062 5.73125 3.89062 8C3.89062 10.2688 5.73125 12.1094 8 12.1094C10.2687 12.1094 12.1094 10.2688 12.1094 8C12.1094 5.73125 10.2687 3.89062 8 3.89062ZM8 10.6656C6.52812 10.6656 5.33437 9.47188 5.33437 8C5.33437 6.52813 6.52812 5.33437 8 5.33437C9.47187 5.33437 10.6656 6.52813 10.6656 8C10.6656 9.47188 9.47187 10.6656 8 10.6656Z" fill="#232536"/>
<path d="M13.2313 3.72842C13.2313 4.25967 12.8 4.68779 12.2719 4.68779C11.7406 4.68779 11.3125 4.25654 11.3125 3.72842C11.3125 3.19717 11.7438 2.76904 12.2719 2.76904C12.8 2.76904 13.2313 3.20029 13.2313 3.72842Z" fill="#232536"/>
</symbol>

<symbol id="in" width="16" height="16" viewBox="0 0 16 16" fill="none" xmlns="http://www.w3.org/2000/svg">
<g clip-path="url(#clip0_1905_12)">
<path d="M14.8156 0H1.18125C0.528125 0 0 0.515625 0 1.15313V14.8438C0 15.4813 0.528125 16 1.18125 16H14.8156C15.4688 16 16 15.4813 16 14.8469V1.15313C16 0.515625 15.4688 0 14.8156 0ZM4.74687 13.6344H2.37188V5.99687H4.74687V13.6344ZM3.55938 4.95625C2.79688 4.95625 2.18125 4.34062 2.18125 3.58125C2.18125 2.82188 2.79688 2.20625 3.55938 2.20625C4.31875 2.20625 4.93437 2.82188 4.93437 3.58125C4.93437 4.3375 4.31875 4.95625 3.55938 4.95625ZM13.6344 13.6344H11.2625V9.92188C11.2625 9.0375 11.2469 7.89687 10.0281 7.89687C8.79375 7.89687 8.60625 8.8625 8.60625 9.85938V13.6344H6.2375V5.99687H8.5125V7.04063H8.54375C8.85938 6.44063 9.63438 5.80625 10.7875 5.80625C13.1906 5.80625 13.6344 7.3875 13.6344 9.44375V13.6344Z" fill="#232536"/>
</g>
<defs>
<clipPath id="clip0_1905_12">
<rect width="16" height="16" fill="white"/>
</clipPath>
</defs>
</symbol>

<symbol id="fb" width="16" height="16" viewBox="0 0 16 16" fill="none" xmlns="http://www.w3.org/2000/svg">
<g clip-path="url(#clip0_1905_75)">
<path d="M16 8C16 3.58172 12.4183 0 8 0C3.58172 0 0 3.58172 0 8C0 11.993 2.92547 15.3027 6.75 15.9028V10.3125H4.71875V8H6.75V6.2375C6.75 4.2325 7.94438 3.125 9.77172 3.125C10.6467 3.125 11.5625 3.28125 11.5625 3.28125V5.25H10.5538C9.56 5.25 9.25 5.86672 9.25 6.5V8H11.4688L11.1141 10.3125H9.25V15.9028C13.0745 15.3027 16 11.993 16 8Z" fill="#6D6E76"/>
</g>
<defs>
<clipPath id="clip0_1905_75">
<rect width="16" height="16" fill="white"/>
</clipPath>
</defs>
</symbol>

<symbol id="twit" width="17" height="16" viewBox="0 0 17 16" fill="none" xmlns="http://www.w3.org/2000/svg">
<g clip-path="url(#clip0_1905_77)">
<path d="M5.69945 14.5005C11.7357 14.5005 15.0382 9.49829 15.0382 5.16173C15.0382 5.0211 15.0351 4.87735 15.0288 4.73673C15.6713 4.27213 16.2257 3.69666 16.666 3.03735C16.0677 3.30356 15.4324 3.47741 14.782 3.55298C15.4669 3.14243 15.9797 2.49747 16.2254 1.73767C15.5811 2.11953 14.8764 2.3889 14.1416 2.53423C13.6466 2.0082 12.992 1.6599 12.2791 1.54319C11.5663 1.42648 10.8348 1.54786 10.1978 1.88855C9.56088 2.22925 9.05388 2.77029 8.75525 3.42803C8.45661 4.08577 8.38297 4.82357 8.5457 5.52735C7.24101 5.46188 5.96464 5.12296 4.79934 4.53255C3.63403 3.94215 2.60581 3.11345 1.78133 2.10017C1.36228 2.82265 1.23405 3.67759 1.4227 4.49122C1.61135 5.30485 2.10272 6.01612 2.79695 6.48048C2.27577 6.46393 1.766 6.32361 1.30977 6.0711V6.11173C1.3093 6.86992 1.57141 7.60488 2.05156 8.19167C2.5317 8.77846 3.20023 9.18086 3.94352 9.33048C3.46072 9.46257 2.954 9.48182 2.46258 9.38673C2.67232 10.0388 3.0804 10.6091 3.62986 11.018C4.17933 11.427 4.84276 11.6542 5.52758 11.668C4.36497 12.5812 2.9288 13.0766 1.45039 13.0742C1.18821 13.0738 0.926282 13.0578 0.666016 13.0261C2.16792 13.9897 3.91504 14.5014 5.69945 14.5005Z" fill="#6D6E76"/>
</g>
<defs>
<clipPath id="clip0_1905_77">
<rect width="16" height="16" fill="white" transform="translate(0.666016)"/>
</clipPath>
</defs>
</symbol>

<symbol id="inst" width="17" height="16" viewBox="0 0 17 16" fill="none" xmlns="http://www.w3.org/2000/svg">
<g clip-path="url(#clip0_1905_79)">
<path d="M8.33399 1.44062C10.4715 1.44062 10.7246 1.45 11.5652 1.4875C12.3465 1.52187 12.7684 1.65313 13.0496 1.7625C13.4215 1.90625 13.6902 2.08125 13.9684 2.35938C14.2496 2.64062 14.4215 2.90625 14.5652 3.27813C14.6746 3.55938 14.8059 3.98438 14.8402 4.7625C14.8777 5.60625 14.8871 5.85938 14.8871 7.99375C14.8871 10.1313 14.8777 10.3844 14.8402 11.225C14.8059 12.0063 14.6746 12.4281 14.5652 12.7094C14.4215 13.0813 14.2465 13.35 13.9684 13.6281C13.6871 13.9094 13.4215 14.0813 13.0496 14.225C12.7684 14.3344 12.3434 14.4656 11.5652 14.5C10.7215 14.5375 10.4684 14.5469 8.33399 14.5469C6.19649 14.5469 5.94336 14.5375 5.10274 14.5C4.32148 14.4656 3.89961 14.3344 3.61836 14.225C3.24648 14.0813 2.97773 13.9063 2.69961 13.6281C2.41836 13.3469 2.24648 13.0813 2.10273 12.7094C1.99336 12.4281 1.86211 12.0031 1.82773 11.225C1.79023 10.3813 1.78086 10.1281 1.78086 7.99375C1.78086 5.85625 1.79023 5.60313 1.82773 4.7625C1.86211 3.98125 1.99336 3.55938 2.10273 3.27813C2.24648 2.90625 2.42148 2.6375 2.69961 2.35938C2.98086 2.07812 3.24648 1.90625 3.61836 1.7625C3.89961 1.65313 4.32461 1.52187 5.10274 1.4875C5.94336 1.45 6.19649 1.44062 8.33399 1.44062ZM8.33399 0C6.16211 0 5.89023 0.009375 5.03711 0.046875C4.18711 0.084375 3.60273 0.221875 3.09648 0.41875C2.56836 0.625 2.12148 0.896875 1.67773 1.34375C1.23086 1.7875 0.958984 2.23438 0.752734 2.75938C0.555859 3.26875 0.418359 3.85 0.380859 4.7C0.343359 5.55625 0.333984 5.82812 0.333984 8C0.333984 10.1719 0.343359 10.4438 0.380859 11.2969C0.418359 12.1469 0.555859 12.7313 0.752734 13.2375C0.958984 13.7656 1.23086 14.2125 1.67773 14.6562C2.12148 15.1 2.56836 15.375 3.09336 15.5781C3.60273 15.775 4.18398 15.9125 5.03398 15.95C5.88711 15.9875 6.15898 15.9969 8.33086 15.9969C10.5027 15.9969 10.7746 15.9875 11.6277 15.95C12.4777 15.9125 13.0621 15.775 13.5684 15.5781C14.0934 15.375 14.5402 15.1 14.984 14.6562C15.4277 14.2125 15.7027 13.7656 15.9059 13.2406C16.1027 12.7313 16.2402 12.15 16.2777 11.3C16.3152 10.4469 16.3246 10.175 16.3246 8.00313C16.3246 5.83125 16.3152 5.55938 16.2777 4.70625C16.2402 3.85625 16.1027 3.27188 15.9059 2.76562C15.709 2.23438 15.4371 1.7875 14.9902 1.34375C14.5465 0.9 14.0996 0.625 13.5746 0.421875C13.0652 0.225 12.484 0.0875 11.634 0.05C10.7777 0.009375 10.5059 0 8.33399 0Z" fill="#6D6E76"/>
<path d="M8.33398 3.89062C6.06523 3.89062 4.22461 5.73125 4.22461 8C4.22461 10.2688 6.06523 12.1094 8.33398 12.1094C10.6027 12.1094 12.4434 10.2688 12.4434 8C12.4434 5.73125 10.6027 3.89062 8.33398 3.89062ZM8.33398 10.6656C6.86211 10.6656 5.66836 9.47188 5.66836 8C5.66836 6.52813 6.86211 5.33437 8.33398 5.33437C9.80586 5.33437 10.9996 6.52813 10.9996 8C10.9996 9.47188 9.80586 10.6656 8.33398 10.6656Z" fill="#6D6E76"/>
<path d="M13.5652 3.72793C13.5652 4.25918 13.134 4.68731 12.6059 4.68731C12.0746 4.68731 11.6465 4.25606 11.6465 3.72793C11.6465 3.19668 12.0777 2.76855 12.6059 2.76855C13.134 2.76855 13.5652 3.19981 13.5652 3.72793Z" fill="#6D6E76"/>
</g>
<defs>
<clipPath id="clip0_1905_79">
<rect width="16" height="16" fill="white" transform="translate(0.333984)"/>
</clipPath>
</defs>
</symbol>

<symbol id="site" width="16" height="16" viewBox="0 0 16 16" fill="none" xmlns="http://www.w3.org/2000/svg">
<g clip-path="url(#clip0_1905_84)">
<path d="M14.8156 0H1.18125C0.528125 0 0 0.515625 0 1.15313V14.8438C0 15.4813 0.528125 16 1.18125 16H14.8156C15.4688 16 16 15.4813 16 14.8469V1.15313C16 0.515625 15.4688 0 14.8156 0ZM4.74687 13.6344H2.37188V5.99687H4.74687V13.6344ZM3.55938 4.95625C2.79688 4.95625 2.18125 4.34062 2.18125 3.58125C2.18125 2.82188 2.79688 2.20625 3.55938 2.20625C4.31875 2.20625 4.93437 2.82188 4.93437 3.58125C4.93437 4.3375 4.31875 4.95625 3.55938 4.95625ZM13.6344 13.6344H11.2625V9.92188C11.2625 9.0375 11.2469 7.89687 10.0281 7.89687C8.79375 7.89687 8.60625 8.8625 8.60625 9.85938V13.6344H6.2375V5.99687H8.5125V7.04063H8.54375C8.85938 6.44063 9.63438 5.80625 10.7875 5.80625C13.1906 5.80625 13.6344 7.3875 13.6344 9.44375V13.6344Z" fill="#6D6E76"/>
</g>
<defs>
<clipPath id="clip0_1905_84">
<rect width="16" height="16" fill="white"/>
</clipPath>
</defs>
</symbol>


</svg>